PathFileType	4	(X/Y/Z)	E:\Qualisys_Data\Carbon_Farble_Plate\Data\Amateur_Runner\S14\T1\S14T1V13_c3d.trc
DataRate	CameraRate	NumFrames	NumMarkers	Units	OrigDataRate	OrigDataStartFrame	OrigNumFrames
200.000000	200.000000	4	39	mm	200.000000	42	339
Frame#	Time	LSHO			RSHO			LICST			RICST			LASIS			LHEEL			RASIS			LTROC			RTROC			SACR			LTH1			LSK4			LTH2			LTH3			RHM5			LSK2			LTH4			RTH1			LTOE			RTH2			RTH3			RTH4			LLEP			RLEP			LSK1			LSK3			RSK1			LHM5			RSK2			LFT1			RSK3			RSK4			LLME			RLME			RTOE			RHEEL			RFT1			RFT2			LFT2			
		X1	Y1	Z1	X2	Y2	Z2	X3	Y3	Z3	X4	Y4	Z4	X5	Y5	Z5	X6	Y6	Z6	X7	Y7	Z7	X8	Y8	Z8	X9	Y9	Z9	X10	Y10	Z10	X11	Y11	Z11	X12	Y12	Z12	X13	Y13	Z13	X14	Y14	Z14	X15	Y15	Z15	X16	Y16	Z16	X17	Y17	Z17	X18	Y18	Z18	X19	Y19	Z19	X20	Y20	Z20	X21	Y21	Z21	X22	Y22	Z22	X23	Y23	Z23	X24	Y24	Z24	X25	Y25	Z25	X26	Y26	Z26	X27	Y27	Z27	X28	Y28	Z28	X29	Y29	Z29	X30	Y30	Z30	X31	Y31	Z31	X32	Y32	Z32	X33	Y33	Z33	X34	Y34	Z34	X35	Y35	Z35	X36	Y36	Z36	X37	Y37	Z37	X38	Y38	Z38	X39	Y39	Z39	

43	0.21	-1883.407836914062	1400.776489257812	-552.9458618164062	-1904.9404296875	1386.557983398438	-244.6967163085938	-1969.765380859375	946.027099609375	-544.2775268554688	-1937.694702148438	961.415283203125	-268.2909240722656	-1926.685546875	896.9166259765625	-519.8349609375	-2336.11767578125	478.71728515625	-430.9325561523438	-1907.184204101562	926.5775146484376	-289.7098388671875	-2067.29541015625	815.4614868164062	-541.7317504882812	-2050.5546875	867.1836547851562	-237.3674163818359	-2094.504150390625	958.473388671875	-406.6518249511719	-1944.99755859375	613.0525512695312	-573.5670776367188	-2144.921142578125	476.117431640625	-523.5936279296875	-2016.505126953125	597.8107299804688	-544.9234008789062	-1916.326904296875	516.779541015625	-561.8181762695312	-1894.778564453125	71.44064331054688	-293.57421875	-2050.53955078125	486.2891845703125	-550.4672241210938	-1992.260986328125	502.9905700683594	-535.3294067382812	-1854.033813476562	660.9139404296875	-236.7019500732422	-2334.558837890625	220.6434478759766	-475.3553161621094	-1929.14990234375	642.3671264648438	-230.6531829833984	-1827.01611328125	569.175048828125	-272.90283203125	-1905.153442382812	545.0030517578125	-253.9982757568359	-1947.5546875	453.7154235839844	-557.4606323242188	-1866.756591796875	480.7087707519531	-269.849609375	-2039.380615234375	404.4718627929688	-546.3919677734375	-2138.80078125	396.3305053710938	-522.7061157226562	-1867.80029296875	354.7906799316406	-275.3731689453125	-2354.96044921875	291.3587646484375	-526.9679565429688	-1948.130981445312	379.6718444824219	-255.7378082275391	-2356.87890625	459.87939453125	-400.5567016601562	-1911.517211914062	260.080078125	-293.3291625976562	-1980.139038085938	290.3329772949219	-272.3002014160156	-2307.89697265625	426.1251831054688	-494.38232421875	-2018.925415039062	121.5736541748047	-300.8800354003906	-1832.920288085938	68.43120574951172	-370.2067565917969	-2097.75732421875	106.989631652832	-346.3269653320312	-2082.30615234375	74.10767364501953	-376.3290100097656	-2086.619873046875	82.24331665039062	-318.9827880859375	-2363.77587890625	473.9713439941406	-455.1119689941406
44	0.215	-1869.917358398438	1400.000854492188	-553.7315673828125	-1887.5107421875	1385.317016601562	-244.9717864990234	-1956.279907226562	945.6844482421876	-544.2400512695312	-1926.939208984375	961.0445556640624	-266.1759948730469	-1912.001342773438	896.53076171875	-518.9224853515625	-2312.208740234375	476.3965148925781	-432.9646301269531	-1894.109130859375	925.6905517578124	-289.281494140625	-2053.336181640625	815.6663208007812	-540.6453247070312	-2035.416748046875	866.33203125	-236.8849487304688	-2080.88623046875	958.296875	-405.7843627929688	-1924.071655273438	614.2511596679688	-573.0917358398438	-2119.644775390625	476.2138977050781	-524.1600952148438	-1995.284545898438	596.9933471679688	-544.2263793945312	-1892.586181640625	518.8300170898438	-561.95751953125	-1894.93896484375	71.8348617553711	-293.8469848632812	-2024.669555664062	486.9998168945312	-550.122314453125	-1968.40185546875	503.1758117675781	-534.7627563476562	-1843.423828125	657.2947998046875	-237.1295776367188	-2303.8662109375	218.3425140380859	-474.810302734375	-1919.951416015625	640.530029296875	-232.2695922851562	-1818.177368164062	564.3508911132812	-273.1377868652344	-1897.550415039062	541.8285522460938	-254.6981353759766	-1922.056518554688	455.0512390136719	-556.8804321289062	-1860.3251953125	477.3671875	-270.3922729492188	-2013.135498046875	405.6848754882812	-546.1658325195312	-2112.587158203125	396.177490234375	-522.7282104492188	-1862.910522460938	350.946533203125	-276.0418701171875	-2325.871337890625	288.57080078125	-528.58056640625	-1942.1875	377.54248046875	-255.1858215332031	-2332.3330078125	458.1554260253906	-402.19921875	-1906.421508789062	258.4060668945312	-293.0316772460938	-1975.972778320312	288.7180480957031	-272.0415344238281	-2281.409423828125	424.256591796875	-495.7452087402344	-2019.007934570312	121.9933547973633	-301.3324279785156	-1833.370239257812	68.13945007324219	-370.5350036621094	-2094.439697265625	106.1669998168945	-347.2472534179688	-2082.271240234375	74.1003189086914	-376.3975219726562	-2086.583251953125	82.8254165649414	-318.8907470703125	-2339.692626953125	472.2511901855469	-458.251220703125
45	0.22	-1857.097412109375	1399.402099609375	-554.4805908203125	-1869.5849609375	1385.2841796875	-245.0494995117188	-1942.799926757812	946.2664794921876	-543.8027954101562	-1911.707885742188	961.4042358398438	-265.4512939453125	-1897.76416015625	896.6942749023438	-518.7272338867188	-2288.861328125	474.6385192871094	-434.9473876953125	-1882.225341796875	924.7398681640624	-288.0408325195312	-2039.01708984375	815.4883422851562	-540.033447265625	-2019.693359375	865.7021484375	-235.5485076904297	-2065.301513671875	958.5889282226562	-404.8492736816406	-1902.965209960938	615.8504028320312	-572.9044799804688	-2093.607666015625	477.0762634277344	-524.4696655273438	-1973.970825195312	597.1476440429688	-543.280517578125	-1869.09326171875	521.7996826171875	-561.1873168945312	-1895.225952148438	71.82199096679688	-294.3133544921875	-1998.876342773438	487.9953918457031	-549.5537109375	-1944.596313476562	504.1705017089844	-533.84228515625	-1832.732788085938	653.0234375	-236.60009765625	-2272.628173828125	216.8786315917969	-475.2911071777344	-1909.901733398438	637.5054931640625	-232.173095703125	-1810.048095703125	560.37451171875	-273.3214416503906	-1889.189819335938	539.7870483398438	-255.2594604492188	-1896.847045898438	457.4218444824219	-556.4974365234375	-1853.67431640625	473.6266479492188	-270.19775390625	-1986.32568359375	406.7258911132812	-545.4370727539062	-2086.087890625	396.7584533691406	-523.0668334960938	-1858.008544921875	348.5630798339844	-276.2258605957031	-2296.65625	285.291259765625	-529.2322387695312	-1936.606567382812	375.4653625488281	-254.8662109375	-2309.0224609375	455.7772216796875	-405.9429321289062	-1903.848510742188	256.3023681640625	-293.2562866210938	-1973.320434570312	288.1521911621094	-272.1808166503906	-2255.26123046875	422.1827697753906	-496.9149475097656	-2018.261352539062	121.879997253418	-301.2146301269531	-1833.733032226562	67.38701629638672	-370.8140258789062	-2092.89404296875	106.3036956787109	-346.7991943359375	-2082.679443359375	74.6237564086914	-376.733642578125	-2086.19580078125	83.1883773803711	-318.6577453613281	-2316.420654296875	469.520751953125	-459.9930114746094
46	0.225	-1844.1484375	1399.7373046875	-556.0150756835938	-1851.892700195312	1384.946411132812	-245.8281555175781	-1928.71826171875	947.0873413085938	-543.69677734375	-1897.353759765625	960.7986450195312	-265.2078247070312	-1884.419921875	897.6331176757812	-519.6270141601562	-2264.597900390625	471.0977783203125	-437.0280151367188	-1869.52001953125	923.8994140625	-286.8499450683594	-2024.385131835938	816.615234375	-539.4461669921875	-2005.494384765625	866.3047485351562	-234.4766235351562	-2051.25634765625	959.4229736328124	-403.5459289550781	-1882.452514648438	618.13134765625	-572.7772827148438	-2068.685791015625	476.91259765625	-524.8770751953125	-1952.43701171875	597.7940063476562	-542.21142578125	-1845.608032226562	525.0913696289062	-560.6565551757812	-1894.867065429688	71.5935287475586	-293.9896850585938	-1973.821655273438	489.61962890625	-549.3408203125	-1920.699951171875	505.9172058105469	-533.0851440429688	-1822.645385742188	649.8228149414062	-237.0132446289062	-2242.43603515625	213.39208984375	-476.3162841796875	-1900.3408203125	635.0881958007812	-232.1126251220703	-1802.298583984375	555.9691162109375	-272.765625	-1882.210571289062	537.3378295898438	-255.6923370361328	-1871.851928710938	460.4654541015625	-555.9085693359375	-1848.130859375	471.5372619628906	-270.3783874511719	-1960.92138671875	408.7627258300781	-545.7015380859375	-2059.864990234375	396.8523254394531	-523.1776733398438	-1853.211547851562	346.4346618652344	-276.8704528808594	-2267.774169921875	282.5982360839844	-531.1583862304688	-1932.311889648438	375.0282897949219	-255.3500213623047	-2284.716552734375	452.4250183105469	-406.4289245605469	-1902.087524414062	254.5821685791016	-295.364013671875	-1969.533569335938	288.2694091796875	-272.1156005859375	-2229.614501953125	420.3051147460938	-498.4358520507812	-2018.14599609375	122.5062408447266	-301.1117858886719	-1834.0166015625	67.19412231445312	-370.9353637695312	-2087.992919921875	107.4156188964844	-346.0046997070312	-2082.495849609375	75.81011199951172	-376.7731628417969	-2086.871337890625	84.82649993896484	-319.4100341796875	-2291.67138671875	466.0904846191406	-462.4423828125
